/* XPM */
static char *toolbar_xpm[] = {
/* width height num_colors chars_per_pixel */
"   437    23       16            1",
/* colors */
"` c #000000",
". c #800000",
"# c #008000",
"a c #808000",
"b c #000080",
"c c #800080",
"d c #008080",
"e c #808080",
"f c #c0c0c0",
"g c #ff0000",
"h c #00ff00",
"i c #ffff00",
"j c #0000ff",
"k c #ff00ff",
"l c #00ffff",
"m c #ffffff",
/* pixels */
"ffffffffffffffffffffffffffffffffffffffffffffffffffffffffffffffffffffffffffffffffffffffffffffffffffffffffffffffffffffffffffffffffffffffffffffffffffffffffffffffffffffffffffffffffffffffffffffffffffffffffffffffffffffffffffffffffffffffffffffffffffffffffffffffffffffffffffffffffffffffffffffffffffffffffffffffffffffffffffffffffffffffffffffffffffffffffffffffffffffffffffffffffffffffffffffffffffffffffffffffff`````fffffffffffffffffffffffffff`ffff",
"fffffffffffffffffffffffffffffffffffffffffffffffffffffffffffffffffffffffffffffffffffffffffffffffffffffffffffffffffffffffffffffffffffffffffffffffffffffffffffffffffffffffffffffffffffffffffffffffffffffffffffffffffffffffffffffffffffffffffffffffffffffffffffffffffffffffffffffffffffff``ff``ff``f```ff``ff``f```````fffffff```````fffffffffffffffffffffffffjjjjjffffffffffffjjjjjffffffffffffffff```````ffffff```fffff```ffffffff````ffffffffff```ffff",
"ffffffffffffffffffffffffffffffffffffffffffffffffffffffffffffffffffffffffffffffffgffffffffffffffffffffffffffffffffffffffffffffffffffffffffffffffffffffffffffffffffffffffffffffffffffffffffffffffffffffffffffffffffffffffffffffffffffffffffffffffffffffffffffffffffffffffffffffffffffff``ff``ff``ff``ff``ff``f```````fffffff```````ffffffffffffbbbbfffffffffjffffffffffffffffffffjffffffffffffffff```````fffff`fffffffffff`ffffffffff```fffffff``ffffff",
"ffffffffffffffffffffffffffffffffffffffffffffffffffffffffffffffffffffffffffffffffgffffffffffffffffffffffffffffffffffffffffffffffffffffffffffffffffffffffffffffffffffffffffffffffffffffffffffffffffffffffffffffffffffffffffffffffffffffffffffffffffffffffffffffffffffffffffffffffffffffffffffffffffffffffffffff`````fffffffff`````fffffffffffebffffbefffffffjffffffffffffffffffffjfffffffffffffffff`````ffff``fffffffffffff``ffffffffff``ffff```fffffff",
"ffffffffffffffffffffffffffffffffffbffffffffffffffffffffbb``bbfffffffffffffffffffgffffffffffffffffffffffffffffffffffffffffffffffffffffffffffffffffffffffffffffffffffffffffffffffffffffffffffffffffffffffffffffffffffffffffffffffffffffffffff```````fffffffffffffffffffffffffffffffffff``ffffffffffffffffffffff`````fffffffff`````fffffffffffbfmmmff`fffffffjffffffbbbbffffffffffjfffffffffffffffff`````ffff`fffffffffffffff`fffffffffffffffffffff`ffff",
"ffffffff`ffffffffffffffffffffffffbbbfffffffffffffffffbbeffffebbfffffffffffffffffgffffffffffffffffffffffffffffffffffffffffffffffffffffffffffffffffffffffffffffffffffffffffffffffffffffffffffffffffffffffffffffffffffffffffffffffffffffffffffffffffffffffffffffffffffffffffffffffffffff`````````fff```````f``fff```fffffffffff```fffffffffffbfmmfffff`ffffffjffffebffffbeffffffffjffffffffffffff``ff```ffff`fffffffffffffffff`fffffff``fffffffff```ffff",
"ffffffff``ffffffffffffffffffffff`````fffffffffffffffbbffffffffbbffffffffffffffffgffffffffffffffffffffffffffffffffffffffffffffffffffffffffffffffffffffffffffffffffffffffffffffffffffffffffffffffffffffffffffffffffffffffffffffffffffffffffff`````fffffffffffffffffffffffeeeeffffffffffff```````fff```````f``fff```ff``fff``ff```fffffffffffbfmffffff`fffffffffffbfmmmff`fffffffffffffffffffffffffff```fff`fffffffffffffffffff`ffffff```fffffffff`fffff",
"ffffffff```fffffffffffffffffffffefbfefffffffffffffffbffffffffffbffffffffffffffffgfffffffffffffffffff``ffff``fffffffffffffff``ffff``fffffffffffffff```````ffffffffffff``ffff``f```````fffffff``ffff``f```````fffffff``ffff``f``ffff``ffffffffffffffffffffffffffffffffffe````effffffffffff`````fffff`````ffffffff`fff``fff``fff`ffffffffffffbffffffmf`ffffffffffbfmmfffff`ffffffffffffffffffff``fffff`ffff`fffffffffmfffffffff`ffffffffffffffffffffffff",
"ffffffff````ffffffffffffffffffffffbffffffffffffffffbeffffffffffebfffffffffffffffgfffffffffffffffffffe`effe`efffffffffffffffe`effe`effffffffffffffffffffe`ffffffffffffe`effe`effffffe`fffffffe`effe`effffffe`fffffffe`effe`efe`effe`efffffff```````ffffffffffffffffffff`ffff`fffffffff``f`````fffff`````ff``ffffffffff`f`ffffffffffffffffffbfffffmme`ffffffffffbfmffffff`ffffffffffffffffffffffffffffffff`ffffffffmjmffffffff`ffffffffffffffffffffffff",
"ffffffff`````ffffffffffffffff`efffbfffe`fffffffffffbffffffffffffbfffffffffffffffgffffffffffffffffffff``ff``fffffffffffffffff``ff``ffffffffffffffffffffe`ffffffffffffff``ff``ffffffe`fffffffff``ff``ffffffe`fffffffff``ff``fff``ff``fffffffffffffffffffffffffffffffffff`ffff`fffffffff``ff```fffffff```fff``fffffffffff`ffffffffffffffffffffbffmmmf`fffffffffffbffffffmf`ffffffffffffffffff``fffffffffff`ffffffffmjjjmffffffff`fffffffffffffffffffffff",
"ffffffff``````ffffffffffffffb`fffffffff`bffffffffff`ffffffffffff`ffffffffffff```````ffffffffffffffffff````fffffffffffffffffff````ffffffffffffffffffffe`ffffffffffffffff````ffffffe`fffffffffff````ffffffe`fffffffffff````fffff````fffffffff````````ffbffffffffffffffff`ffff`fffffffffffff```fffffff```ffffffffffffffff`ffffffffffffffffffffe`fffe`e`ffffffffffbfffffmme`fffffffffffffffffffffffffffffff`ffffffffmjjjmffffffff`fffffffffff``ffffffffff",
"ffffffff```````ffffffffffffbb`bbbfffbbb`bbfffffffff`ffffffffffff`ffffffffffff```````fffffffffffffffffff``ffffffffffffffffffffe``effffffffffffffffffff`ffffffffffffffffff``fffffff`ffffffffffffe``effffff`fffffffffffff``ffffffe``efffffffffffffffffffbbfffffffffffffffffffffefffffffffffff`fffffffff`ffffffffffffffff```fffffffffffffffffffff````bem`ffffffffffbffmmmf`fffffffffffffffff``fffffffffffff`fffffffmjj`jjmfffffff`ffffffffff``fffffffffff",
"ffffffff````````ffffffffffffb`fffffffff`bffffffffffbffffffffffffbfffffffffffff`````fffffffffffffffffff````ffffffffffffffffffff``ffffffffffffffffffff``fffffffffffffffff````fffff``fffffffffffff``ffffff``ffffffffffff````ffffff``ffffffffff`````fffffbbbfffffffffffffeeeeeee`ffffffff``ffffffffffffffffff``fffffffffff`fffffffffffffffffffffffffff`bjefffffffffe`fffe`e`fffffffffffffffffffffffffffffff`fffffffmj`jjjmfffffff`ffffffffff`ffffffffffff",
"ffffffff`````ffffffffffffffff`efffbfffe`fffffffffffbefffffbffffebfffffffffffff`````jjjjjjjjffffffffff``ff``fffffffffffffffffff``fffffffffffffffffff``fffffffffffffffff``ff``fff``ffffffffffffff``fffff``ffffffffffff``ff``fffff``ffffffffffffffffffffbbbbffffffffffff````````ffffffff``fffff```````ffffff``ffffffffffffffffffffffffffffffffffffffff`bjeffffffffff````bem`fffffffffffff``ffffffff``fffff`fffffffm`jjjjmfffffff`ffffffffff``fffffffffff",
"ffffffff``f``fffffffffffffffffffffbfffffffffffffffffbfffff`effbbffffffffffffffh```ffffffffffffffffffe`effe`effffffffffffffffff``ffffffffffffffffff``fffffffffffffffffe`effe`ef``fffffffffffffff``ffff``ffffffffffffe`effe`effff``ffffffffff```````fffbbbbbfffffffffffeeeeeee`fffffffffffffff```````ffffffffffffffff```````fffffffffff```````ffffffff`bjeffffffffffffff`bjefffffffffffffffffffff`ff`fffff`ffffff`mmmmmmffffff`ffffffffffff`fffffffffff",
"ffffffff`fff``ffffffffffffffffffefbfefffffffffffffffbbffffb`ebbefffffffffffffhf```ffffffffffffffffff``ffff``ffffffffffffffffff``ffffffffffffffffff```````ffffffffffff``ffff``f```````ffffffffff``ffff```````fffffff``ffff``ffff``ffffffffffffffffffffbbbbbbffffffffff````````ffffffffffffffff`````fffffffffffffffff```````fffffffffff```````fffffffff`bjfffffffffffffff`bjeffffff```````ffffffffff`fffff`fffff`fffffffffffff`ffffffffffffffffffffffff",
"ffffffffffff``ffffffffffffffffff`````ffffffffffffffffbffffbb`bffffffffffffffhfff`ffffffffffffffffffffffffffffffffffffffffffffffffffffffffffffffffffffffffffffffffffffffffffffffffffffffffffffffffffffffffffffffffffffffffffffffffffffffffff``````ffffbbbbffffffffffffeeeeeee`ffffffff``ffffff`````fffffff``fffffffff`````fffffffffffff`````fffffffffff`fffffffffffffffff`bjefffff```````ffffffff``ffffff`ffff`ffffffffffffff`ffff``fffffff``````````f",
"fffffffffffff``ffffffffffffffffffbbbffffffffffffffffffffffbbb`effffffffffffhfffffffffffffffffffffffffffffffffffffffffffffffffffffffffffffffffffffffffffffffffffffffffffffffffffffffffffffffffffffffffffffffffffffffffffffffffffffffffffffffffffffffffbfbbffffffffffff```````effffffff``fffffff```ffffffff``fffffffff`````fffffffffffff`````fffffffffffffffjffffffffffffff`bjfffjff`````ffffffffffffffffff`ff`ffffffffffffff`ffff```````````mmmmmmm`ff",
"fffffffffffff``fffffffffffffffffffbfffffffffffffffffffffffbbbb`bffffffffffhffffffffffffffffffffffffffffffffffffffffffffffffffffffffffffffffffffffffffffffffffffffffffffffffffffffffffffffffffffffffffffffffffffffffffffffffffffffffffffffff````````fffffbbffffffffffffffffffffffffffffffffffff```ffffffffffffffffffff```fffffffffffffff```ffffffffffffffffjfffffffffffffff`ffffjff`````fffffffff``ffffffff``ffffffffffffff`fffffff``mmmmmmmmmmmmm``ff",
"fffffffffffffffffffffffffffffffffffffffffffffffffffffffffffffffffffffffffhfffffffffffffffffffffffffffffffffffffffffffffffffffffffffffffffffffffffffffffffffffffffffffffffffffffffffffffffffffffffffffffffffffffffffffffffffffffffffffffffffffffffffffffffffffffffffffffffffffffffffffffffffffff`fffffffffffffffffffff```fffffffffffffff```ffffffffffffffffjffffffffffffffffffffjfff```ffffffffffffffffffff``fffffffffffff``ffffffff```mmmmmmmmmm``fff",
"ffffffffffffffffffffffffffffffffffffffffffffffffffffffffffffffffffffffffhffffffffffffffffffffffffffffffffffffffffffffffffffffffffffffffffffffffffffffffffffffffffffffffffffffffffffffffffffffffffffffffffffffffffffffffffffffffffffffffffffffffffffffffffffffffffffffffffffffffffffff``ff``ff``ff``ff``ff``fffffffffff`fffffffffffffffff`fffffffffffffffffjffffffffffffffffffffjfff```ffffffffffffffffffffff`fffffffffff`ffffffffffff````mmmmm```ffff",
"fffffffffffffffffffffffffffffffffffffffffffffffffffffffffffffffffffffffffffffffffffffffffffffffffffffffffffffffffffffffffffffffffffffffffffffffffffffffffffffffffffffffffffffffffffffffffffffffffffffffffffffffffffffffffffffffffffffffffffffffffffffffffffffffffffffffffffffffffffff``ff``ff``ff``ff``ff``fffffffffffffffffffffffffffffffffffffffffffffffjjjjjffffffffffffjjjjjffff`ffffffffffffffffffffffff```fffff```fffffffffffffffff``````ffffff",
"ffffffffffffffffffffffffffffffffffffffffffffffffffffffffffffffffffffffffffffffffffffffffffffffffffffffffffffffffffffffffffffffffffffffffffffffffffffffffffffffffffffffffffffffffffffffffffffffffffffffffffffffffffffffffffffffffffffffffffffffffffffffffffffffffffffffffffffffffffffffffffffffffffffffffffffffffffffffffffffffffffffffffffffffffffffffffffffffffffffffffffffffffffffffffffffffffffffffffffffffff`````ffffffffffffffffffffffffffffffff"
};
