/* XPM */
static char *wxFREDIcon_xpm[] = {
/* width height num_colors chars_per_pixel */
"    16    16      256            2",
/* colors */
"`` c #fcfefc",
"`. c #fefffe",
"`# c #fdfefd",
"`a c #ffffff",
"`b c #e9e9e6",
"`c c #dddcd6",
"`d c #fbfcfb",
"`e c #abacae",
"`f c #9b9d9f",
"`g c #d4d5d4",
"`h c #c3c3c4",
"`i c #9fa0a2",
"`j c #a7a8ac",
"`k c #d9d8d5",
"`l c #908f8c",
"`m c #9a9ca0",
"`n c #c4c5c6",
"`o c #ebeceb",
"`p c #97989b",
"`q c #9d9ea1",
"`r c #d4d5d5",
"`s c #f7f7f7",
"`t c #5b5d61",
"`u c #999b9e",
"`v c #828386",
"`w c #67696d",
"`x c #6b6d71",
"`y c #d6d4cf",
"`z c #565757",
"`A c #929598",
"`B c #f7f8f7",
"`C c #c4c5c5",
"`D c #88888c",
"`E c #d9d9da",
"`F c #727476",
"`G c #fefffd",
"`H c #f5f6f6",
"`I c #abadaf",
"`J c #f6f6f7",
"`K c #b3b4b5",
"`L c #b7b7b8",
"`M c #989a9c",
"`N c #b9b7b0",
"`O c #727271",
"`P c #8f9194",
"`Q c #cacbcb",
"`R c #e9e9e9",
"`S c #949699",
"`T c #9b9c9e",
"`U c #bbbcbd",
"`V c #f5f5f4",
"`W c #cacbca",
"`X c #9e9e9d",
"`Y c #797979",
"`Z c #6e6d6d",
"`0 c #676667",
"`1 c #504f4e",
"`2 c #363634",
"`3 c #353534",
"`4 c #383839",
"`5 c #424243",
"`6 c #6e6e6d",
"`7 c #999a9a",
"`8 c #c8c9c9",
".` c #dcdcdb",
".. c #bcbbbb",
".# c #c7c8c8",
".a c #dcdddc",
".b c #e9ebea",
".c c #e3e4e2",
".d c #a9a497",
".e c #a7a294",
".f c #8a8270",
".g c #8e8c85",
".h c #5f5d58",
".i c #292a2b",
".j c #222121",
".k c #282829",
".l c #6e6f6e",
".m c #f5f6f5",
".n c #fefefe",
".o c #e3e2dd",
".p c #ada796",
".q c #b4b1a7",
".r c #a8a292",
".s c #c2bdb0",
".t c #d0cabd",
".u c #6b6c6e",
".v c #1b1a1a",
".w c #1c1b1b",
".x c #2e2e2e",
".y c #e7e8e7",
".z c #fbfdfb",
".A c #fafcfa",
".B c #ccc9c2",
".C c #807968",
".D c #898987",
".E c #78797a",
".F c #96928a",
".G c #726c5c",
".H c #3e3f42",
".I c #5f5f5e",
".J c #919191",
".K c #e5e5e5",
".L c #c6c7c6",
".M c #848484",
".N c #565658",
".O c #5f5c56",
".P c #817a68",
".Q c #66686b",
".R c #87888a",
".S c #949086",
".T c #aaa494",
".U c #fafcfd",
".V c #fcfdfc",
".W c #757575",
".X c #171717",
".Y c #161616",
".Z c #464747",
".0 c #deddd7",
".1 c #9c9583",
".2 c #959390",
".3 c #96938a",
".4 c #ada99d",
".5 c #c1bbae",
".6 c #a2a2a2",
".7 c #333333",
".8 c #1f1f1f",
"#` c #232323",
"#. c #727170",
"## c #8e8a80",
"#a c #a7a295",
"#b c #a69e8b",
"#c c #bbb7ac",
"#d c #d2cfc5",
"#e c #f9fafb",
"#f c #edeeed",
"#g c #dfdfdf",
"#h c #c9caca",
"#i c #d7d7d7",
"#j c #f1f2f1",
"#k c #b2b3b1",
"#l c #6b6c6b",
"#m c #444544",
"#n c #3a3a3a",
"#o c #302f2e",
"#p c #373736",
"#q c #474544",
"#r c #565555",
"#s c #5b5b5c",
"#t c #656565",
"#u c #848584",
"#v c #b2b2b2",
"#w c #fafbfa",
"#x c #d4d5d6",
"#y c #cecfd1",
"#z c #f4f4f4",
"#A c #aeafae",
"#B c #8a8477",
"#C c #9fa0a0",
"#D c #c6c8c7",
"#E c #d4d4d4",
"#F c #ebecec",
"#G c #f2f4f3",
"#H c #fbfbfb",
"#I c #e0e1e1",
"#J c #828385",
"#K c #9e9fa1",
"#L c #a6a7a9",
"#M c #9c9e9f",
"#N c #6a6d73",
"#O c #82817c",
"#P c #747168",
"#Q c #808389",
"#R c #f4f4f3",
"#S c #989a9b",
"#T c #858789",
"#U c #86888a",
"#V c #ebedec",
"#W c #eff0f0",
"#X c #9fa1a2",
"#Y c #c2c3c4",
"#Z c #d9dadb",
"#0 c #d8d7d2",
"#1 c #86837c",
"#2 c #93959a",
"#3 c #cfd1d0",
"#4 c #cccdcd",
"#5 c #cecfcf",
"#6 c #98999c",
"#7 c #f7f8f8",
"#8 c #fdfffd",
"a` c #f9f9f9",
"a. c #f3f4f3",
"a# c #e7e6e4",
"aa c #d9d7d2",
"ab c #fcfdfd",
"ac c #f6f6f5",
"ad c #000000",
"ae c #000000",
"af c #000000",
"ag c #000000",
"ah c #000000",
"ai c #000000",
"aj c #000000",
"ak c #000000",
"al c #000000",
"am c #000000",
"an c #000000",
"ao c #000000",
"ap c #000000",
"aq c #000000",
"ar c #000000",
"as c #000000",
"at c #000000",
"au c #000000",
"av c #000000",
"aw c #000000",
"ax c #000000",
"ay c #000000",
"az c #000000",
"aA c #000000",
"aB c #000000",
"aC c #000000",
"aD c #000000",
"aE c #000000",
"aF c #000000",
"aG c #000000",
"aH c #000000",
"aI c #000000",
"aJ c #000000",
"aK c #000000",
"aL c #000000",
"aM c #000000",
"aN c #000000",
"aO c #000000",
"aP c #000000",
"aQ c #000000",
"aR c #000000",
"aS c #000000",
"aT c #000000",
"aU c #000000",
"aV c #000000",
"aW c #000000",
"aX c #000000",
"aY c #000000",
"aZ c #000000",
"a0 c #000000",
"a1 c #000000",
"a2 c #000000",
"a3 c #000000",
"a4 c #000000",
"a5 c #000000",
"a6 c #000000",
"a7 c #000000",
"a8 c #000000",
/* pixels */
"```.`.`.`.`#`a`b`c`a`#`.`a`a`.``",
"`d`e`f`g`h`i`j`k`l`m`n`o`p`q`r`a",
"`s`t`u`a`v`w`x`y`z`A`B`C`D`E`F`G",
"`H`I`J`a`K`L`M`N`O`P`Q`R`S`T`U`a",
"`V`W`X`Y`Z`0`1`2`3`4`5`6`7`8`a`#",
".`...#.a.b.c.d.e.f.g.h.i.j.k.l.m",
"`.`a`a.n`a.o.p.q.r.s.t.u.v.w.x.y",
".z.A`a.n`a.B.C.D.E.F.G.H.I.J.K`a",
"``.n.L.M.N.O.P.Q.R.S.T.U.V`a`#.A",
"`a.W.X.Y.Z.0.1.2.3.4.5`a.V`a`a`a",
"`a.6.7.8#`#.###a#b#c#d#e#f#g#h#i",
".z`a#j#k#l#m#n#o#p#q#r#s#t#u#v.y",
"``#w#x#y#z`R#A###B#C#D#E#F#G#H`a",
"`a#I#J#K#L#M#N#O#P#Q#R#S#T#U#V`a",
"`a#W#K#X`8#Y#Z#0#1#2#3#4#5#6#7#8",
"```.a`a..n`#`aa#aaabac`.`.`a````"
};
