/* XPM */
static char * fred_debug_xpm[] = {
"64 64 357 2",
"  	c None",
". 	c #58503C",
"+ 	c #000000",
"@ 	c #15130E",
"# 	c #080705",
"$ 	c #BFBFBF",
"% 	c #8F8F8F",
"& 	c #9F9F9F",
"* 	c #303030",
"= 	c #606060",
"- 	c #101010",
"; 	c #202020",
"> 	c #404040",
", 	c #FFFFFF",
"' 	c #DFDFDF",
") 	c #CFCFCF",
"! 	c #EFEFEF",
"~ 	c #707070",
"{ 	c #AFAFAF",
"] 	c #505050",
"^ 	c #808080",
"/ 	c #191611",
"( 	c #1D1B14",
"_ 	c #14120D",
": 	c #5B533F",
"< 	c #6E634A",
"[ 	c #7E7154",
"} 	c #7C7054",
"| 	c #544C3A",
"1 	c #786D52",
"2 	c #74694F",
"3 	c #7F7356",
"4 	c #7F7357",
"5 	c #3B3527",
"6 	c #7C7055",
"7 	c #444444",
"8 	c #555147",
"9 	c #545046",
"0 	c #413E39",
"a 	c #4C4A43",
"b 	c #3E3C38",
"c 	c #343432",
"d 	c #403E3A",
"e 	c #3D3B37",
"f 	c #43413C",
"g 	c #484642",
"h 	c #42413F",
"i 	c #3F3E3C",
"j 	c #5C5950",
"k 	c #57544E",
"l 	c #3D3D3D",
"m 	c #373737",
"n 	c #353535",
"o 	c #313131",
"p 	c #2F2F2F",
"q 	c #282828",
"r 	c #252525",
"s 	c #272727",
"t 	c #242423",
"u 	c #1D1E20",
"v 	c #18191B",
"w 	c #1A1B1B",
"x 	c #161617",
"y 	c #19191A",
"z 	c #181818",
"A 	c #141516",
"B 	c #121213",
"C 	c #111212",
"D 	c #1D1D1E",
"E 	c #222223",
"F 	c #1F2022",
"G 	c #272829",
"H 	c #2B2C2D",
"I 	c #2B2B2B",
"J 	c #333333",
"K 	c #3E3E3E",
"L 	c #4A4A4A",
"M 	c #292929",
"N 	c #232323",
"O 	c #1F1F1F",
"P 	c #1B1B1B",
"Q 	c #161616",
"R 	c #141414",
"S 	c #121212",
"T 	c #111111",
"U 	c #171718",
"V 	c #111114",
"W 	c #141415",
"X 	c #191919",
"Y 	c #1C1C1C",
"Z 	c #181817",
"` 	c #171716",
" .	c #161615",
"..	c #1A1A1A",
"+.	c #1D1D1D",
"@.	c #222222",
"#.	c #393939",
"$.	c #454545",
"%.	c #575757",
"&.	c #1E1E1E",
"*.	c #212121",
"=.	c #151515",
"-.	c #131313",
";.	c #21201E",
">.	c #242418",
",.	c #1C1B19",
"'.	c #1A1A18",
").	c #131415",
"!.	c #16171A",
"~.	c #1C1D1D",
"{.	c #101013",
"].	c #0E0F11",
"^.	c #121214",
"/.	c #181717",
"(.	c #171717",
"_.	c #383838",
":.	c #4E4E4E",
"<.	c #423B2C",
"[.	c #756A4F",
"}.	c #766C53",
"|.	c #363228",
"1.	c #5A523F",
"2.	c #4F4838",
"3.	c #454032",
"4.	c #3A362E",
"5.	c #252422",
"6.	c #1A1B1C",
"7.	c #101012",
"8.	c #484848",
"9.	c #605741",
"0.	c #817457",
"a.	c #83775C",
"b.	c #463F2E",
"c.	c #827556",
"d.	c #837657",
"e.	c #847759",
"f.	c #887C5F",
"g.	c #504A3A",
"h.	c #3E3A30",
"i.	c #262522",
"j.	c #0D0E11",
"k.	c #191818",
"l.	c #242424",
"m.	c #2C2C2C",
"n.	c #545454",
"o.	c #6E644A",
"p.	c #7E7256",
"q.	c #443D2D",
"r.	c #796E51",
"s.	c #7B7053",
"t.	c #796E52",
"u.	c #7D7257",
"v.	c #6D6248",
"w.	c #85785A",
"x.	c #4B4B4B",
"y.	c #786C50",
"z.	c #7D7255",
"A.	c #484130",
"B.	c #7C7053",
"C.	c #7B6F52",
"D.	c #7F7459",
"E.	c #5F5640",
"F.	c #7D7154",
"G.	c #80755A",
"H.	c #595959",
"I.	c #574F3B",
"J.	c #7E7357",
"K.	c #4E4735",
"L.	c #81765B",
"M.	c #5A523E",
"N.	c #807457",
"O.	c #807559",
"P.	c #0C0C0C",
"Q.	c #343434",
"R.	c #675D46",
"S.	c #817557",
"T.	c #534B39",
"U.	c #817658",
"V.	c #82775B",
"W.	c #544C39",
"X.	c #817559",
"Y.	c #2D2D2D",
"Z.	c #70664C",
"`.	c #807456",
" +	c #81755A",
".+	c #7D7254",
"++	c #7E7356",
"@+	c #4C4534",
"#+	c #7F7458",
"$+	c #776C51",
"%+	c #7E7255",
"&+	c #524B38",
"*+	c #443E2F",
"=+	c #7D7054",
"-+	c #83785D",
";+	c #7B6F53",
">+	c #807357",
",+	c #7D7155",
"'+	c #403B2C",
")+	c #433D2E",
"!+	c #554D3A",
"~+	c #3A3528",
"{+	c #82775C",
"]+	c #4B4433",
"^+	c #82765B",
"/+	c #726852",
"(+	c #1F1F20",
"_+	c #4E4736",
":+	c #7F755B",
"<+	c #534C3A",
"[+	c #7D7359",
"}+	c #5C5D5B",
"|+	c #393632",
"1+	c #3E3C36",
"2+	c #302E28",
"3+	c #7C7154",
"4+	c #756B52",
"5+	c #151517",
"6+	c #4F4C46",
"7+	c #46474A",
"8+	c #474235",
"9+	c #827557",
"0+	c #827658",
"a+	c #655E4C",
"b+	c #1A1C22",
"c+	c #15181E",
"d+	c #2F2F2E",
"e+	c #4B4536",
"f+	c #766C54",
"g+	c #2D2A23",
"h+	c #37332C",
"i+	c #2B2820",
"j+	c #363636",
"k+	c #2E2E2E",
"l+	c #171719",
"m+	c #0D0E0F",
"n+	c #3C372C",
"o+	c #867A5B",
"p+	c #716750",
"q+	c #534B38",
"r+	c #7E7355",
"s+	c #786D51",
"t+	c #262626",
"u+	c #1C1C1B",
"v+	c #121419",
"w+	c #403B2D",
"x+	c #7D7256",
"y+	c #85795D",
"z+	c #383327",
"A+	c #81765A",
"B+	c #423D2E",
"C+	c #82765C",
"D+	c #3E392B",
"E+	c #353024",
"F+	c #514A37",
"G+	c #413A2C",
"H+	c #474747",
"I+	c #524A38",
"J+	c #484231",
"K+	c #6E634B",
"L+	c #504937",
"M+	c #817558",
"N+	c #7F7456",
"O+	c #2A2A2A",
"P+	c #646464",
"Q+	c #807356",
"R+	c #564E3A",
"S+	c #7E7254",
"T+	c #727272",
"U+	c #7C7155",
"V+	c #453E2E",
"W+	c #7E7257",
"X+	c #5B523D",
"Y+	c #2C271B",
"Z+	c #786C4E",
"`+	c #7D7053",
" @	c #7A6E52",
".@	c #635A42",
"+@	c #3F3F40",
"@@	c #454443",
"#@	c #686252",
"$@	c #796F58",
"%@	c #3F3928",
"&@	c #7C7051",
"*@	c #7D7052",
"=@	c #6B6048",
"-@	c #1E1F1F",
";@	c #2C2D2E",
">@	c #454543",
",@	c #4F4E4C",
"'@	c #7D7764",
")@	c #46433C",
"!@	c #6E6653",
"~@	c #736A53",
"{@	c #786D54",
"]@	c #7F755C",
"^@	c #756A4E",
"/@	c #3C3C3C",
"(@	c #323232",
"_@	c #161717",
":@	c #1A1A1B",
"<@	c #1B1B1C",
"[@	c #191A1E",
"}@	c #272728",
"|@	c #2A2A2C",
"1@	c #2F2F30",
"2@	c #333332",
"3@	c #3C3C3A",
"4@	c #3A3A39",
"5@	c #41413F",
"6@	c #3F3E3D",
"7@	c #514E47",
"8@	c #56524A",
"9@	c #4E4C48",
"0@	c #504E49",
"a@	c #424240",
"b@	c #414141",
"c@	c #1D1D1C",
"d@	c #121313",
"e@	c #1C1D1E",
"f@	c #151516",
"g@	c #181819",
"h@	c #1B1B1A",
"i@	c #131314",
"j@	c #131414",
"k@	c #040505",
"l@	c #0C0C0D",
"m@	c #22201C",
"n@	c #1F1E1C",
"o@	c #20201F",
"p@	c #1C1C1D",
"q@	c #59513C",
"r@	c #83785C",
"s@	c #5F5641",
"t@	c #685E47",
"u@	c #645B46",
"v@	c #625B48",
"w@	c #5B5441",
"x@	c #252118",
"y@	c #786D53",
"z@	c #6F644A",
"A@	c #786D50",
"B@	c #685E46",
"C@	c #7A6F53",
"D@	c #524A37",
"E@	c #645B44",
"F@	c #59503B",
"G@	c #514936",
"H@	c #47402F",
"I@	c #3D3729",
"J@	c #7F7358",
"K@	c #302B20",
"L@	c #776C50",
"M@	c #74694E",
"N@	c #6F654B",
"O@	c #58503B",
"P@	c #494231",
"                                                                                                                                ",
"                                                                .                                                               ",
"                                            + + + + + + + +   + @ # + + + + +       + + + + + + + +     + + + + + + +           ",
"                                          + + + + + + + + + + + + + + + + + + +   + + + + + + + + + + + + + + + + + + + +       ",
"  + + + + + + + + + + + + + + +   + + + + + + $ $ $ $ $ $ % + + $ $ $ $ $ $ & + + + * $ $ $ $ $ $ = + + * $ $ $ $ $ % - + +     ",
"  + ; > + + - * + + - > + > > + + + * > + + + , ' $ $ $ $ % + + , ' $ $ $ ' , > + + > , ) $ $ $ $ = + + > , ) $ $ $ , ! - +     ",
"  + * , ; + = , ; + ~ { + = , ~ + ] , > + + + , ^ + + + + + + + , ^ + + + > , > + + > , > + + + + + + + > , > + + + * , % + +   ",
"  + + ' ~ + { ! ~ + ) = + + = , ^ ! = + + + + , $ ^ ^ ; + + + + , $ ^ ^ ^ { , > + + > , , , , > + +   + > , > + + + + $ $ + +   ",
"  + + % ) - ! = ) ; , - + + + ^ , & + +   + + , , , , > +   + + , , , , , , ' - + + > , & ^ ^ ; +     + > , > + + + + $ $ + +   ",
"    + ; , % % - , % { + + + - ) ! , * + + + + , ^ + + + +   + + , ^ + & , = + + + + > , > + + + + + + + > , > + + + ; , % + +   ",
"    + + ) , * + & , ] + + + & ) - & ! * + + + , ^ + + +     + + , ^ + + & , = + + + > , & ^ ^ ^ ^ > + + > , & ^ ^ & ! ! ; +     ",
"    + + ~ ' + + ] ! + + + & ! ; + + ) ! * + + , ^ + +       + + , ^ + + + $ , ~ + + > , , , , , , ^ + + > , , , , , ) > + +     ",
"      + + + + + + + + + + + + + + + + + + + + + + +         + + + + + + + + + + + + + + + + + + + + + + + + + + + + + + +       ",
"        + + +   + + +     + + +   + + + +   + + +             / + (     _ + + +     + + + + + + + +     + + + + + + + +         ",
"                                                        :     < [ }     |                                                       ",
"                                                        1     2 3 4     5 6                                                     ",
"                                                7 8 9 0 a b c d e f g h i j k                                                   ",
"                            l m n o p q r s s r t u v w x y z A B C A D E F G H I J n K 7 L                                     ",
"                    J M M N O O P Q R - S T Q U V Q z W X Y z Z `  .R  .O P R ..z z +.Y P O @.* #.$.%.                          ",
"            ; O &.*.O =.T S -...O X Q =.Q z ..;.>. .,.'.).!.~.A {.].^.U *.N P /.Q (.; M ; X S S Q ; * _.> :.                    ",
"        Y X -.=...Y P                             <.[.}.    |.1.2.3.4.5.&.@.6.7.W Q Q O @.*.P X Y *.; ; Q ..p 8.                ",
"    R R                                           9.0.a.    b.c.d.e.f.      g.h.i.j.k.(.(.*.@.Y z l.r @...-.S -.m.n.            ",
"                                                  o.p.      q.r.s.t.u.      v.w.    ....(.+.N N Q +.r s r Y (.-.-.z x.          ",
"                                                  y.z.      A.B.C.C.D.      E.F.G.      X O l.r @.P &.*.N l.+.-.(.T ..H.        ",
"                                                I.3 J.      K.3 z.z.L.      M.N.O.        X O @.r N O +.&.N @.(.- Q P.Q.        ",
"                                                R.S.O.      T.U.z.z.V.      W.N.X.        P z +.&.N @.; *.r @.O (.S -.Y.        ",
"                                                Z.`. +      T.N..+++L.      @+3 #+        Y ; &.P Y *.N @.r ; Y &.=.(.m.        ",
"                                                $+%+O.      &+N.p.%+G.      *+=+++-+      P &.*.*.O &...; r @.z =...z           ",
"                                                ;+>+G.      W.3 %+,+L.      '+z.z.L.    +.+.&.O N @.&...z &.@.P T               ",
"                                              )+p.p.G.      !+N.%+z. +      ~+s.%+{+  -.=.z (...*.*.@.*.(.-.X                   ",
"                                              ]+N.F.a.      !+N.,+F.^+        1 S./+(+z Q Q R =.Y &.; @.                        ",
"                                              _+3 %+:+      <+S.p.%+[+}+|+1+2+3+S.4+..5+z X R                                   ",
"                                        _.6+7+8+9+0+a+b+c+d+e+e.,+`.f+l g+h+i+} %+D.                                            ",
"                              j+m k+q *.+.l+m+n+o+%+p+      q+r+%+++^+        s+%+ +                                            ",
"                      * I t+O ..z z ..(.Q u+v+w+e.x+y+      W.3 B.%+V.      z+;+3 A+                                            ",
"                  p I @.Q =.S =.=.Q Y &.Y     B+p.%+C+      q+3 3 p. +      D+} %+A+                                            ",
"              &.(...&.@.O ..=.z z (.P M       E+;+F.L.      F+3 ++F.G.      G+F.z.V.                                            ",
"            +.*.P (.X P @.*.z -.z R t+H+        [.3 A+      I+N.,+z.L.      J+,+z.{+                                            ",
"          S (.Y @.+.P +.*.@.; =.Q S Y.          K+S.A+      L+M+++%+L.      L+N+4                                               ",
"          (.=.=.P O *.; r l.*.*.X -.O+P+        9.Q+4       @+%+C.B.O.      R+S+J.                                              ",
"            ..z (.P ; N t+r &.&.; z Q > T+      @+B.U+      V+C.C.s.W+      X+B.x+                                              ",
"            X ; *.&.z P r s *.(...*.Y +.n H.    Y+Z+`+      )+;+ @ @u.      .@F.x+                                              ",
"                l.N ; P ..*.N (.- P +.Y P t+#.+@@@#@$@      %@&@*@C.#+      =@,+                                                ",
"                  r q ; -.X ; &.R Q (.(.P *.-@r Y.;@n >@,@'@)@!@~@{@]@      ^@`.                                /@Q.(@Y.M q     ",
"                        O Y O +.P X ..=.(.O @.@.O O _@:@<@[@}@|@1@2@3@4@5@6@7@8@9@0@a@b@l /@m j+m #.m Q.Q.I M l.*...Q R         ",
"                              &.O +.P =.(.Q O N ..+.O P c@c@z Z -.S d@(.O &.l+e@e@D *.*.&.Y Q (.Q X +.Q Q X (.z (.              ",
"                                    X Q X Y O l.O P z f@g@E (+P z (.z h@&.&.X i@j@=.P &...(.R =.z P ; +.X                       ",
"                                                P k@l@m@n@y o@p@g@W f@:@D p@y ` (.R (.+.+.P (.                                  ",
"                                                      q@r@    s@t@u@v@    w@                                                    ",
"                                                      x@y@    z@d.S.      A@                                                    ",
"                                                        &+    B@B.C@    D@                                                      ",
"                                                              E@S+U+                                                            ",
"                                                              E.[ ,+                                                            ",
"                                                              F@F.x+                                                            ",
"                                                              G@[ u.                                                            ",
"                                                              H@`+u.                                                            ",
"                                                              I@C.J@                                                            ",
"                                                              K@L@J@                                                            ",
"                                                                M@V.                                                            ",
"                                                                N@                                                              ",
"                                                                R.                                                              ",
"                                                                O@                                                              ",
"                                                                P@                                                              ",
"                                                                                                                                "};
